# xmcd
#
# Track frame offsets:
#	150
#	52350
#	78825
#	100950
#	141450
#	179250
#	229500
#	247725
#	304650
#
# Disc length: 4418 seconds
#
# Revision: 1
# Processed by: cddbd v1.5PL3 Copyright (c) Steve Scherf et al.
# Submitted via: audiograbber 1.83.01
#
DISCID=71114009
DTITLE=Robert B. Reich - Reason (2of6) Why Liberals will win the Battle for Ame
DTITLE=rica
DYEAR=2004
DGENRE=Speech
TTITLE0=Disk2T01
TTITLE1=Disk2T02
TTITLE2=Disk2T03
TTITLE3=Disk2T04
TTITLE4=Disk2T05
TTITLE5=Disk2T06
TTITLE6=Disk2T07
TTITLE7=Disk2T08
TTITLE8=Disk2T09
EXTD=
EXTT0=
EXTT1=
EXTT2=
EXTT3=
EXTT4=
EXTT5=
EXTT6=
EXTT7=
EXTT8=
PLAYORDER=
